<svg xmlns="http://www.w3.org/2000/svg" viewBox="509 302 1040 1040" fill="currentColor">
  <g transform="translate(0,2040) scale(0.1,-0.1)">
    <path d="M9960 15150 c-21 -30 -22 -30 -120 -30 -98 0 -99 0 -120 -30 -20 -28
-25 -30 -90 -30 -65 0 -70 -2 -90 -30 -17 -24 -28 -30 -60 -30 -32 0 -43 -6
-60 -30 -17 -24 -29 -30 -57 -30 -31 0 -44 -8 -93 -60 -47 -50 -62 -60 -90
-60 -28 0 -43 -10 -90 -60 -46 -49 -63 -60 -88 -60 -29 0 -71 -39 -407 -375
-333 -333 -375 -378 -375 -406 0 -26 -15 -46 -90 -119 -77 -75 -90 -92 -90
-120 0 -28 -10 -43 -60 -90 -52 -49 -60 -62 -60 -93 0 -28 -6 -40 -30 -57 -24
-17 -30 -28 -30 -60 0 -32 -6 -43 -30 -60 -24 -17 -30 -28 -30 -60 0 -32 -6
-43 -30 -60 -24 -17 -30 -28 -30 -60 0 -32 -6 -43 -30 -60 -24 -17 -30 -29
-30 -58 0 -29 -6 -42 -32 -63 -23 -20 -31 -34 -31 -59 0 -25 8 -39 31 -59 32
-26 32 -26 32 -123 0 -96 0 -97 30 -118 28 -20 30 -25 30 -90 0 -65 2 -70 30
-90 30 -21 30 -22 30 -120 0 -98 0 -99 30 -120 30 -21 30 -21 30 -180 0 -159
0 -159 30 -180 30 -21 30 -21 30 -209 0 -207 1 -211 62 -211 32 0 40 -5 53
-30 9 -18 23 -30 35 -30 12 0 26 12 35 30 16 30 16 30 175 30 159 0 159 0 180
30 20 28 25 30 90 30 65 0 70 2 90 30 17 24 29 30 56 30 29 0 44 9 80 44 44
44 44 44 44 170 0 125 0 125 30 146 24 17 30 28 30 60 0 32 6 43 30 60 23 17
30 29 30 56 0 50 132 184 181 184 26 0 43 11 89 60 49 52 62 60 93 60 28 0 40
6 57 30 17 24 28 30 60 30 32 0 43 6 60 30 17 24 28 30 60 30 32 0 43 6 60 30
21 30 22 30 120 30 98 0 99 0 120 30 20 28 26 30 86 30 65 0 65 0 139 75 62
61 75 80 75 106 0 26 11 43 60 89 52 49 60 62 60 93 0 28 6 40 30 57 24 17 30
29 30 57 0 31 8 44 60 93 52 49 60 62 60 93 0 28 6 40 30 57 24 17 30 28 30
60 0 32 6 43 30 60 28 20 30 25 30 90 0 65 2 70 30 90 24 17 30 28 30 60 0 32
6 43 30 60 30 21 30 22 30 120 0 98 0 99 30 120 30 21 30 21 30 180 0 159 0
159 30 180 24 17 30 28 30 60 0 32 -6 43 -30 60 -30 21 -30 21 -30 150 0 129
0 129 -30 150 -24 17 -30 28 -30 60 0 32 -6 43 -30 60 -23 17 -30 29 -30 56 0
30 -10 45 -75 109 -74 75 -74 75 -139 75 -60 0 -66 2 -86 30 -21 30 -21 30
-180 30 -159 0 -159 0 -180 -30z"/>
    <path d="M5610 14520 c-46 -50 -61 -60 -88 -60 -47 0 -122 -74 -122 -121 0
-26 -11 -42 -60 -89 -60 -57 -60 -57 -60 -123 0 -62 -2 -67 -30 -87 -30 -21
-30 -21 -30 -150 0 -129 0 -129 -30 -150 -30 -21 -30 -21 -30 -270 0 -249 0
-249 30 -270 30 -21 30 -21 30 -210 0 -189 0 -189 30 -210 30 -21 30 -22 30
-120 0 -98 0 -99 30 -120 28 -20 30 -25 30 -90 0 -65 2 -70 30 -90 28 -20 30
-25 30 -90 0 -65 2 -70 30 -90 28 -20 30 -25 30 -90 0 -65 2 -70 30 -90 24
-17 30 -28 30 -60 0 -32 6 -43 30 -60 28 -20 30 -25 30 -90 0 -65 2 -70 30
-90 24 -17 30 -29 30 -57 0 -31 8 -44 60 -93 52 -49 60 -62 60 -93 0 -28 6
-40 30 -57 24 -17 30 -29 30 -57 0 -31 8 -44 60 -93 49 -46 60 -63 60 -89 0
-27 15 -47 105 -136 104 -105 104 -105 169 -105 60 0 66 -2 86 -30 21 -30 21
-30 150 -30 129 0 129 0 150 -30 20 -28 25 -30 90 -30 65 0 70 -2 90 -30 20
-28 25 -30 90 -30 65 0 70 -2 90 -30 17 -24 28 -30 60 -30 32 0 43 -6 60 -30
20 -28 25 -30 90 -30 65 0 70 -2 90 -30 17 -24 28 -30 60 -30 32 0 43 -6 60
-30 21 -30 22 -30 119 -30 110 0 121 6 121 61 0 30 6 42 30 59 24 17 30 28 30
60 0 32 6 43 30 60 28 20 30 25 30 90 0 65 2 70 30 90 30 21 30 21 30 206 0
186 0 186 -44 230 -34 33 -52 44 -76 44 -45 0 -120 75 -120 121 0 26 -11 42
-60 89 -52 49 -60 62 -60 93 0 28 -6 40 -30 57 -30 21 -30 21 -30 360 0 339 0
339 30 360 30 21 30 22 30 120 0 98 0 99 30 120 30 21 30 22 30 120 0 98 0 99
-30 120 -24 17 -30 28 -30 60 0 32 -6 43 -30 60 -24 17 -30 28 -30 60 0 32 -6
43 -30 60 -24 17 -30 28 -30 60 0 32 -6 43 -30 60 -24 17 -30 28 -30 60 0 32
-6 43 -30 60 -24 17 -30 29 -30 57 0 31 -8 44 -60 93 -50 47 -60 62 -60 90 0
28 -10 43 -60 90 -49 46 -60 63 -60 89 0 28 -26 57 -225 256 -199 199 -228
225 -256 225 -26 0 -43 11 -89 60 -49 52 -62 60 -93 60 -28 0 -40 6 -57 30
-17 24 -28 30 -60 30 -32 0 -43 6 -60 30 -21 30 -21 30 -238 30 -217 0 -217 0
-272 -60z"/>
    <path d="M9750 12180 c-323 -327 -358 -359 -389 -359 -28 -1 -46 -14 -121 -91
-74 -76 -93 -90 -119 -90 -49 0 -181 -134 -181 -184 0 -27 7 -39 30 -56 23
-17 30 -29 30 -56 0 -31 19 -53 225 -259 225 -225 225 -225 289 -225 60 0 66
2 86 30 17 24 28 30 60 30 32 0 43 6 60 30 21 30 21 30 180 30 159 0 159 0
180 -30 20 -28 25 -30 90 -30 65 0 70 -2 90 -30 17 -24 28 -30 60 -30 32 0 43
-6 60 -30 17 -24 28 -30 60 -30 32 0 43 -6 60 -30 17 -24 29 -30 56 -30 32 0
52 -17 244 -210 209 -210 209 -210 334 -210 125 0 125 0 146 -30 21 -30 21
-30 300 -30 279 0 279 0 300 30 21 30 21 30 240 30 219 0 219 0 240 30 21 30
22 30 120 30 98 0 99 0 120 30 20 28 25 30 90 30 65 0 70 2 90 30 17 24 28 30
60 30 32 0 43 6 60 30 17 24 29 30 57 30 31 0 44 8 93 60 46 49 63 60 89 60
49 0 181 134 181 184 0 27 7 39 30 56 30 21 30 21 30 240 0 219 0 219 -30 240
-24 17 -30 29 -30 57 0 31 -8 44 -60 93 -49 46 -60 63 -60 89 0 27 -18 50
-135 166 -121 121 -138 135 -169 135 -27 0 -39 7 -56 30 -17 24 -29 30 -57 30
-31 0 -44 8 -93 60 -49 52 -62 60 -93 60 -28 0 -40 6 -57 30 -17 24 -28 30
-60 30 -32 0 -43 6 -60 30 -20 28 -25 30 -90 30 -65 0 -70 2 -90 30 -17 24
-28 30 -60 30 -32 0 -43 6 -60 30 -21 30 -22 30 -120 30 -98 0 -99 0 -120 30
-21 30 -22 30 -120 30 -98 0 -99 0 -120 30 -21 30 -21 30 -180 30 -159 0 -159
0 -180 30 -21 30 -21 30 -598 29 -577 0 -577 0 -932 -359z"/>
    <path d="M4740 10830 c-21 -30 -22 -30 -120 -30 -98 0 -99 0 -120 -30 -20 -28
-25 -30 -90 -30 -65 0 -70 -2 -90 -30 -17 -24 -28 -30 -60 -30 -32 0 -43 -6
-60 -30 -17 -24 -28 -30 -60 -30 -32 0 -43 -6 -60 -30 -17 -23 -29 -30 -56
-30 -31 0 -48 -14 -169 -135 -121 -121 -135 -138 -135 -169 0 -27 -7 -39 -30
-56 -30 -21 -30 -21 -30 -180 0 -159 0 -159 30 -180 24 -17 30 -28 30 -60 0
-32 6 -43 30 -60 24 -17 30 -29 30 -57 0 -31 8 -44 60 -93 49 -46 60 -63 60
-89 0 -47 134 -181 181 -181 26 0 43 -11 89 -60 47 -50 62 -60 90 -60 28 0 43
-10 90 -60 49 -52 62 -60 93 -60 28 0 40 -6 57 -30 17 -24 28 -30 60 -30 32 0
43 -6 60 -30 20 -28 25 -30 90 -30 65 0 70 -2 90 -30 17 -24 28 -30 60 -30 32
0 43 -6 60 -30 20 -28 25 -30 90 -30 65 0 70 -2 90 -30 21 -30 22 -30 120 -30
98 0 99 0 120 -30 21 -30 21 -30 150 -30 129 0 129 0 150 -30 21 -30 21 -30
300 -30 279 0 279 0 300 -30 21 -30 22 -30 120 -30 98 0 99 0 120 30 21 30 21
30 266 30 244 0 244 0 409 165 142 142 165 169 165 196 0 44 76 119 120 119
27 0 51 20 180 150 130 131 153 150 180 150 27 0 46 14 120 90 77 79 92 90
122 90 52 0 58 13 58 118 0 94 0 94 -90 182 -76 74 -90 93 -90 119 0 47 -134
181 -181 181 -26 0 -43 11 -89 60 -49 52 -62 60 -93 60 -28 0 -40 -6 -57 -30
-17 -24 -28 -30 -60 -30 -32 0 -43 -6 -60 -30 -21 -30 -21 -30 -240 -30 -219
0 -219 0 -240 30 -20 28 -25 30 -90 30 -65 0 -70 2 -90 30 -17 24 -29 30 -57
30 -31 0 -44 8 -93 60 -46 49 -63 60 -89 60 -28 0 -55 24 -241 210 -209 210
-209 210 -844 210 -635 0 -635 0 -656 -30z"/>
    <path d="M9463 10635 c-34 -34 -43 -51 -43 -79 0 -27 -6 -39 -30 -56 -24 -17
-30 -28 -30 -60 0 -32 -6 -43 -30 -60 -30 -21 -30 -22 -30 -120 0 -98 0 -99
-30 -120 -30 -21 -30 -21 -30 -146 0 -126 0 -126 44 -170 34 -33 52 -44 76
-44 48 0 180 -135 180 -184 0 -27 7 -39 30 -56 24 -17 30 -28 30 -60 0 -32 6
-43 30 -60 30 -21 30 -21 30 -150 0 -129 0 -129 30 -145 18 -9 30 -23 30 -35
0 -12 -12 -26 -30 -35 -30 -16 -30 -16 -30 -205 0 -189 0 -189 -30 -210 -30
-21 -30 -22 -30 -118 0 -97 0 -97 -32 -123 -23 -20 -31 -34 -31 -59 0 -25 8
-39 31 -59 30 -24 32 -30 32 -93 0 -63 2 -68 30 -88 24 -17 30 -28 30 -60 0
-32 6 -43 30 -60 24 -17 30 -28 30 -60 0 -32 6 -43 30 -60 24 -17 30 -29 30
-57 0 -31 8 -44 60 -93 50 -47 60 -62 60 -90 0 -28 10 -43 60 -90 50 -47 60
-62 60 -90 0 -28 13 -45 90 -120 76 -74 90 -93 90 -119 0 -48 314 -361 361
-361 26 0 43 -11 89 -60 49 -52 62 -60 93 -60 28 0 40 -6 57 -30 17 -24 28
-30 60 -30 32 0 43 -6 60 -30 21 -30 21 -30 240 -30 219 0 219 0 240 30 17 23
29 30 56 30 31 0 48 14 169 135 135 134 135 134 135 199 0 60 2 66 30 86 28
20 30 25 30 90 0 65 2 70 30 90 30 21 30 21 30 450 0 429 0 429 -30 450 -30
21 -30 21 -30 150 0 129 0 129 -30 150 -30 21 -30 22 -30 120 0 98 0 99 -30
120 -28 20 -30 25 -30 90 0 65 -2 70 -30 90 -28 20 -30 25 -30 90 0 65 -2 70
-30 90 -28 20 -30 25 -30 90 0 65 -2 70 -30 90 -24 17 -30 28 -30 60 0 32 -6
43 -30 60 -24 17 -30 28 -30 60 0 32 -6 43 -30 60 -24 17 -30 28 -30 60 0 32
-6 43 -30 60 -24 17 -30 28 -30 60 0 32 -6 43 -30 60 -24 17 -30 29 -30 57 0
31 -8 44 -60 93 -50 47 -60 62 -60 90 0 28 -10 43 -59 89 -53 50 -60 61 -63
101 -3 45 -3 45 -50 48 -39 3 -51 8 -68 33 -21 29 -22 29 -120 29 -98 0 -99 0
-120 30 -21 30 -22 30 -120 30 -98 0 -99 0 -120 30 -20 28 -25 30 -90 30 -65
0 -70 2 -90 30 -20 28 -25 30 -90 30 -65 0 -70 2 -90 30 -17 24 -28 30 -60 30
-32 0 -43 6 -60 30 -20 28 -25 30 -90 30 -65 0 -70 2 -90 30 -17 24 -28 30
-60 30 -32 0 -43 6 -60 30 -20 28 -25 30 -88 29 -66 0 -68 -1 -109 -44z"/>
    <path d="M8640 9750 c-20 -28 -25 -30 -90 -30 -65 0 -70 -2 -90 -30 -17 -24
-29 -30 -56 -30 -29 0 -44 -9 -80 -44 -43 -43 -44 -46 -44 -110 0 -60 -2 -66
-30 -86 -28 -20 -30 -25 -30 -90 0 -65 -2 -70 -30 -90 -23 -17 -30 -29 -30
-56 0 -31 -15 -50 -165 -199 -149 -150 -168 -165 -199 -165 -27 0 -39 -7 -56
-30 -17 -24 -28 -30 -60 -30 -32 0 -43 -6 -60 -30 -17 -24 -28 -30 -60 -30
-32 0 -43 -6 -60 -30 -21 -30 -22 -30 -120 -30 -98 0 -99 0 -120 -30 -20 -28
-26 -30 -86 -30 -65 0 -65 0 -169 -105 -90 -89 -105 -109 -105 -136 0 -26 -11
-43 -60 -89 -50 -47 -60 -62 -60 -90 0 -28 -10 -43 -60 -90 -52 -49 -60 -62
-60 -93 0 -28 -6 -40 -30 -57 -24 -17 -30 -28 -30 -60 0 -32 -6 -43 -30 -60
-24 -17 -30 -28 -30 -60 0 -32 -6 -43 -30 -60 -28 -20 -30 -25 -30 -90 0 -65
-2 -70 -30 -90 -28 -20 -30 -25 -30 -90 0 -65 -2 -70 -30 -90 -30 -21 -30 -22
-30 -120 0 -98 0 -99 -30 -120 -30 -21 -30 -21 -30 -300 0 -279 0 -279 30
-300 28 -20 30 -25 30 -90 0 -65 2 -70 30 -90 23 -17 30 -29 30 -56 0 -52 132
-184 184 -184 27 0 39 -7 56 -30 21 -30 21 -30 270 -30 249 0 249 0 270 30 20
28 25 30 90 30 65 0 70 2 90 30 20 28 25 30 90 30 65 0 70 2 90 30 17 24 28
30 60 30 32 0 43 6 60 30 17 24 29 30 57 30 31 0 44 8 93 60 47 49 62 60 89
60 29 0 48 16 151 120 101 102 123 120 149 120 47 0 541 494 541 541 0 26 15
45 90 119 77 75 90 92 90 120 0 28 10 43 60 90 50 47 60 62 60 90 0 28 10 43
60 90 52 49 60 62 60 93 0 28 6 40 30 57 24 17 30 28 30 60 0 32 6 43 30 60
24 17 30 28 30 60 0 32 6 43 30 60 24 17 30 28 30 60 0 32 6 43 30 60 30 21
30 22 30 120 0 98 0 99 -30 120 -30 21 -30 22 -30 120 0 98 0 99 -30 120 -28
20 -30 25 -30 90 0 65 -2 70 -30 90 -30 21 -30 21 -30 150 0 129 0 129 -30
150 -30 21 -30 21 -30 210 0 189 0 189 -30 210 -30 21 -30 22 -30 119 0 62 -4
101 -12 109 -9 9 -74 12 -229 12 -218 0 -218 0 -239 -30z"/>
  </g>
</svg>